<?xml version="1.0" encoding="utf-8"?>
<!-- Generator: Adobe Illustrator 18.0.0, SVG Export Plug-In . SVG Version: 6.00 Build 0)  -->
<!DOCTYPE svg PUBLIC "-//W3C//DTD SVG 1.1//EN" "http://www.w3.org/Graphics/SVG/1.1/DTD/svg11.dtd">
<svg version="1.1" id="Layer_1" xmlns="http://www.w3.org/2000/svg" xmlns:xlink="http://www.w3.org/1999/xlink" x="0px" y="0px"
	 viewBox="0 0 1920 1080" enable-background="new 0 0 1920 1080" xml:space="preserve">
<path fill="#212121" d="M1313.8,85C662.5-90.5-56.9,446.7,361.1,802.6c47.5,40.6,85.9,64.3,139.2,93.7
	c108.6,59.6,254.4,108,398.2,142.9c-123.7-32.1-233-71.5-304.7-105.5c-5.8-2.8-11.7-5.4-17.5-8.1c-5.5-2.5-10.8-5.5-16.2-8.2
	C-169.9,557,586.7-67.4,1266.4,78.2c232.6,49.8,396.2,167.4,490,306C1669.7,253.7,1522,141.1,1313.8,85"/>
<path fill="#212121" d="M509.7,781.6c54.6,47.4,37.7,32.5,58.7,48.5c16.9,12.8,8.6,6,31,22.1c4.8,3.4,9.9,6.3,14.8,9.5
	C690.3,911.6,801,965,927.9,1009.1c-24.6-9.1-48.3-18.5-70.8-28.2c-6.1-2.6-12.2-5.2-18.3-7.8C790.4,953,704.4,908,657.6,876.6
	c-5.5-3.7-11-7.3-16.6-10.9c-4.9-3.2-9.5-6.9-14.3-10.3C96.7,480.3,705.8-8.4,1283.3,123.3c290.1,66.2,465.3,243.4,524.4,429.2
	c-59.8-195.6-244.4-382.7-548.8-445c-380.2-78-733.7,99.9-835.8,287.2c-20.1,37-22.1,46.1-29.7,69.8c-3.9,12-9.8,44.7-9.8,64.7
	c0,30.2-0.7,12.3,1.9,38.7c0.3,2.7,0.3,5.5,0.8,8.1c6.9,32.1,3.2,18.9,9.1,37.5C417.1,682.4,457.5,731.6,509.7,781.6"/>
<path fill="#212121" d="M1185.5,1047.5c-3.6-1.6-7.1-3.1-10.7-4.8c-189.2-87.6-231.4-234.2-132.5-261.7
	c85.9-24,210.4,49.9,397.7,43.4c124.1-4.4,158.6-10.4,197.6,24.1c1.1,1,1.9,2.4,2.8,3.5c31.2,41.5,16.9,100.4-30.3,149.3
	c41.8-41.7,64.1-94.3,59.3-148.4c-1.6-17.3-11.6-44.8-24.3-57.8c-2-2.1-3.8-4.7-6-6.5c-2.4-2-4.5-4.3-6.9-6.3
	c-46.3-37.7-111.1-32.2-226-35.8c-185-5.3-376.2-88.1-435.2,27.4c-9,17.6-9,42.9-5.2,62.7c13.8,73.1,93.5,144.8,168.7,185.9
	C1151.6,1031.9,1168.6,1040.2,1185.5,1047.5"/>
<path fill="#212121" d="M1238.7,1020c1-8.5,37-0.6,49.7,6.4c1.1,0.6,2.5,1.2,2.8,2.5c0.8,2.8-4.1,4-6,4.5
	C1263.9,1038.8,1238.1,1024.8,1238.7,1020 M1278.7,1034c2-0.3,7-1.5,6.5-4.4c-1.3-7.1-34.9-15.2-35.9-8.5c-0.2,1.3,0.7,2.4,1.4,3.5
	C1253.8,1029.4,1266.7,1035.5,1278.7,1034"/>
<path fill="#212121" d="M1222,1011.5c11.5-9.8,76.9,7.6,94.8,22c6,4.8,5.4,8.9,0.5,11.6c9.1-2.2,13.8-6.1,10.6-11.1
	c-1.7-2.6-4.2-4.2-6.9-5.6c-20.7-10.7-111.1-36.2-113.2-19c-0.9,7.2,19.8,22.4,46.5,31C1225.8,1029.9,1216.9,1015.8,1222,1011.5"/>
<path fill="#212121" d="M1193.4,994.5c24.7-8.7,135.9,24,160.7,37.5c15.3,8.4,14.8,16.4,4.4,21.7c24.1-7.5,26.7-22.2-14.6-34.8
	c-34.5-10.5-96-25-107.7-27.6c-20.7-4.5-69.1-15.6-63,4.7c3.8,12.7,26.1,27.8,38.2,34.7c10.4,5.9,21.2,10.7,32,14.6
	C1192.5,1024.8,1178.6,999.7,1193.4,994.5"/>
<path fill="#212121" d="M1227.3,1046.7c-50.6-22-84.8-54.8-76.1-69.9c10-17.6,57.8-2.3,124,13.4c57.7,13.7,102.7,23.6,126.5,33
	c27.1,10.7,24.9,25,4.7,35.1c23.3-8.7,34.3-21.6,24.7-34.3c-10.6-13.9-59.3-22.4-68.4-24.3c-37-7.8-59.6-10.6-145.8-33.2
	c-20.2-5.3-68.9-18.6-80.8-8c-17.6,15.8,31.1,68.5,108.6,94.9C1238.9,1051.5,1233.1,1049.3,1227.3,1046.7"/>
<path fill="#212121" d="M1222.3,1051.6c-15.7-6.5-31.3-14.3-46.5-23.5c-25.9-15.7-64.2-44.8-69.7-74.4c-0.5-2.9-0.1-6,0.8-8.8
	c0.9-3,3.1-5.3,5.5-7.1c23.5-18.1,96.6,13.1,180.6,30.8c113.5,23.9,186.2,22.9,196.9,48.2c2.3,5.3,1.1,12.1-2,16.9
	c-5.2,7.8-13.1,14.9-23.3,21c39.1-18.9,55.1-45.8,31.8-65.6c-12.7-10.9-54.4-17.5-70.6-19.6c-12.2-1.6-24.4-3.5-36.6-4.8
	c-170.9-17.8-260.8-75.5-293.7-50.8c-23.3,17.4,3.7,65.9,65.3,105.8C1181.1,1032.8,1201.7,1043.3,1222.3,1051.6"/>
<path fill="#212121" d="M1065.4,882.3c42.3-33.8,166.4,43.6,329.6,51c107,4.9,133.1,2.6,159.8,17.2c7.3,4,13.4,11.6,14.9,15.9
	c4.8,13.9,1.8,22.9-3.5,34.2c-5,10.7-14.3,22-27.3,32.7c34.9-26.1,53.7-58.5,50.1-88c-0.4-2.9-1.4-6-2.7-8.7
	c-3.9-8.3-4.9-10.2-17.3-20c-27.4-21.7-98.6-16.5-191.3-24.6c-163.7-14.3-272.7-82.9-327.1-46.8c-47.6,31.4,1,127.7,123.6,190.4
	C1078.8,984.9,1030.8,910.1,1065.4,882.3"/>
<path fill="#212121" d="M1002.1,945.1c-97.8-86.4-109.8-175.8-91.4-224.5C953.2,608,1091,594.2,1211.1,595.9
	c5.9,0.1,11.8-0.6,17.7-0.4c239,9.6,419.2-36.5,484.6,142.9c12.4,33.9,16.1,78.6,5.1,127.6c-5.7,25.6-15.8,50.3-29.6,73.4
	c52.9-82.2,62.8-186.1,14.8-282.3c-34.1-68.7-96.8-122.5-163.1-146.7c-16.6-6.1-6.1-3.2-17.8-6.4c-8.5-2.3-77.4-28.1-213.9-24
	c-5.2,0.2-17.2-0.1-17.4-0.1c-25.6,2.1-25,0.6-39.3,2.1c-11.3,1.2-27.2,1.7-27.2,1.7c-12,1.6-20.6,2.5-27.7,3
	c-13.5,1-11.4,1.9-38.8,4.9c-2,0.2-38.4,7-36.3,6.3c-31.4,7.9-112.5,23.4-172.6,71.8C778.6,707.1,897,909.3,1110.6,1020
	C1068.8,997.9,1033.2,972.6,1002.1,945.1"/>
<path fill="#212121" d="M630.8,684.1c-90.1-203.5,58.5-419.7,335.2-489.2c131.9-33,261.2-27.5,390.5,8.3
	c49,13.6,107.6,38.5,139.8,56.3c235.7,130.6,328.9,333.2,306,506.3c26-181.3-72.6-396.3-325.7-531.3c-5.3-2.8-10.8-5.3-16.2-7.9
	c-342.6-163.2-768.7-53.9-885.8,207.5c-22.7,50.4-22,109.5-22,109.5c2.3,32.3,0,13.5,3.4,37.3c28.4,201.6,275.4,365.1,509.1,450.1
	C882.7,962.4,701.1,842.4,630.8,684.1"/>
<path fill="#212121" d="M212.5,823.5c49.6,47.7,118.2,98,255.1,151.2c71.8,28,155.8,51.5,244,70.7c-73.3-16.8-136.9-35-183.4-52.6
	c-36.7-13.9-99.2-34.6-186.7-85.1c-606.3-350,182.9-997,894.8-865.6c220.7,40.8,385.5,141,491.3,264.6
	c-99.8-117.7-253.2-214.8-459.3-260.5c-192.8-42.8-407-27.9-590.7,32.3c-186.5,61.1-376.4,165-492.3,325.4
	c-37.8,52.4-64.8,113.5-71.6,179.3C104,674.5,146.1,759.6,212.5,823.5"/>
<path fill="#212121" d="M1140.8,1045.3l3.3,0.9C1032.2,1003.5,923,934.3,856.1,852c-62.9-77.4-96.6-173.4-65.2-265.7
	c2-6,3.6-12.3,6.2-18.1c13.5-29.8,3.3-9.8,16.6-33.9c8.5-15.4,3.3-6.6,9.5-15.6c17.2-25,1.9-4.7,23.3-31.1c1.8-2.2,3.4-4.7,5.4-6.8
	c29.1-29.3,16.1-17.3,27.1-26.8c9.3-7.9,16.2-14.5,21.6-18.3c26.2-19,87.8-67.8,204.3-95.5c209.8-49.7,426.6-9.8,568.8,153.3
	c98.3,112.5,120.9,249.7,81.2,364.5c78.8-216.3-71.6-496.8-386.8-580.3c-219.1-57.9-439.6,9.8-547,122.5
	C582.7,652.1,840.9,934.4,1140.8,1045.3"/>
</svg>
