<?xml version="1.0" encoding="utf-8"?>
<!-- Generator: Adobe Illustrator 18.0.0, SVG Export Plug-In . SVG Version: 6.00 Build 0)  -->
<!DOCTYPE svg PUBLIC "-//W3C//DTD SVG 1.1//EN" "http://www.w3.org/Graphics/SVG/1.1/DTD/svg11.dtd">
<svg version="1.1" id="Layer_1" xmlns="http://www.w3.org/2000/svg" xmlns:xlink="http://www.w3.org/1999/xlink" x="0px" y="0px"
	 viewBox="0 0 1746 1042" enable-background="new 0 0 1746 1042" xml:space="preserve">
<path fill="#EAEAEA" d="M1092.6,405.4c-58.6-9-92.9-16.5-155.2-32.2c-162.5-40.9-351.9-96.1-415.2-1.4
	c-22.8,34.1-26.4,80.2-20.9,121.1c16.1,119.9,114.1,243.6,241.6,266c161.5,28.5,358.7-102,466-226c11.6-13.5,27.2-32.7,36.2-48.1
	c4.6-7.9,9.1-16.9,9.4-26.3C1255.5,424.2,1191,420.5,1092.6,405.4 M1209.1,487.2c-0.2,9.3-4.1,18.2-8.5,26.3
	c-19.9,35.7-85.5,106.8-182.6,161.3c-78.7,44.1-177.6,76-266.6,57.1C686.6,718.1,628.5,677.2,590,622
	c-55.4-79.4-61-175.9-11.9-223.3c77.8-75,283.1-17.5,413.8,10.2c10.8,2.3,21.5,4.5,32.3,6.6C1130,436.3,1210,446.1,1209.1,487.2"/>
<path fill="#EAEAEA" d="M1343.3,406.1c-0.2-29.5-64.3-24.5-168.2-33.6c-96.8-8.5-156.8-23-251.5-51.1c-199-59-411-137.1-484.7-27.3
	c-56.1,83.6-30.9,257.4,70.7,385.1c46,57.8,107.3,104.8,178.1,123.7c130.5,34.8,277.8-34.6,387.6-112.3
	c69.9-49.5,135.7-110,190.9-172.3c27.6-31.2,48.9-58.7,59.1-73.6C1332.3,435,1343.4,418.3,1343.3,406.1 M1299.3,431.2
	c-0.3,9.4-5.2,18.4-9.9,26.3c-17.1,28.7-80.6,108.6-173.9,183.3c-87.4,69.9-200.8,135.2-312.2,145.5c-64.1,5.9-122.6-7-179.6-44.2
	C535.7,684.8,474.2,581.9,458,482c-8.1-49.8-5.7-109.8,22.7-151.4c83-121.6,356.4,1.4,552.7,42.6c20.3,4.3,41.3,7.9,62.2,11
	c20.7,3,40.9,5.4,61.8,7.6C1246,401.2,1300.1,402.1,1299.3,431.2"/>
<path fill="#EAEAEA" d="M1224.3,337.1c-98.2-6.9-166.8-22.2-256.7-49c-240.1-71.7-508.3-189.6-604.5-62.8
	c-6.4,8.4-11.8,17.7-16.3,27.3c-59.5,126.5,0.1,367.6,152.6,507.7c55.7,51.2,123.5,88.1,199.3,96.5c137.4,15,283.6-57,396.6-137.4
	c97.5-69.3,187.7-155.9,262.8-245.9c16-19.2,43.8-53.8,57.3-75c5.1-7.9,10.2-16.4,12.5-25.6C1437.8,332.5,1359.4,346.6,1224.3,337.1
	 M1386.4,385.4c-0.2,4.6-1.7,9.2-3.5,13.4c-5.3,12.3-16.1,27.4-24,38c-11.8,15.8-26.6,34.3-39.4,49.5
	c-74.6,88.8-167.7,175.3-265.9,239.8c-89.2,58.6-198.7,109.5-305.4,109.7c-35.4,0-67.1-5.4-97.5-15.9
	c-38.4-13.2-77.5-35.4-114.8-67.8c-128.2-111.1-191.8-303.3-162.4-431c7.3-31.6,20.9-61.8,44.7-83.2
	c111.7-100,395.8,37.4,617.5,91.3c41.4,10,80.9,17,128.1,22c82,8.6,149.2,6.6,186.8,11.6c9.3,1.2,19.8,2.8,27.9,8
	C1383.7,374.2,1386.6,379.3,1386.4,385.4"/>
<path fill="#EAEAEA" d="M1509.7,338.9c-0.4-40.4-104.9-21.9-270.6-38c-93.7-9.1-165.4-25.7-255.7-52.5
	C698,163.9,380.9,24.4,278.8,190.3c-86.2,140.1-15.2,448.6,182,614.3c34.5,29,72.5,52.8,113.3,69.9c30.8,12.9,62.1,21.1,94.7,25.1
	c147.2,18.3,306-54,429.9-136.6c55.1-36.7,106.6-77.3,155.1-120.3c84.1-74.6,164.3-162.5,221.3-238.9
	C1495.1,377.1,1509.8,354.3,1509.7,338.9 M1469.7,351.8c-0.3,9.4-5.3,18.5-10,26.5c-15.7,27-56.6,76.9-76.7,100.6
	c-61.3,72.2-133.3,143.5-210,205.1c-130.1,104.6-307.3,207.6-473.6,196c-43.5-3-86.6-14.3-130.7-36.5
	c-57.1-28.8-107.3-72.5-147.3-121C297.6,572.2,252.1,359.8,303.7,236.7c12.6-30.2,31.7-55.3,60-72.3
	c147.5-88.4,480.7,81.2,729.4,134.5c160.6,34.4,296.3,20.2,349.9,31c8.7,1.7,19.8,4.5,24.6,12.7
	C1469.2,345.4,1469.8,348.6,1469.7,351.8"/>
<path fill="#EAEAEA" d="M1586.1,324c-0.1-9-4.6-16.3-11.9-21.3c-43.1-29.7-209.2-12.4-413.1-51.9C847.1,190,405.5-28.1,238.8,121.2
	c-126.6,113.4-85.9,440.7,109,653.4c31.7,34.6,65.4,63.8,99.5,87.2c101,69.3,203.8,90.7,317.9,76.2
	c177.9-22.6,358.1-131.5,496.2-243.8c82.4-67,164-146.7,235.3-231.4c21.8-25.9,59.7-72.8,76.7-102.4
	C1579.3,350,1586.2,336.2,1586.1,324 M1539.2,358.5c-8.8,16.5-23.9,36.8-35.3,51.7C1292.6,685.8,897.9,997,594.7,907
	C480.2,873,385,788,318.8,689.1c-124.5-185.9-147.9-416-70.3-525.6C380-22.1,803,193,1115.6,261.7c64.7,14.2,129,22.4,194.2,27.3
	c145.3,10.8,235.4,1.3,238.7,39.1C1549.3,338.5,1544,349.6,1539.2,358.5"/>
<path fill="#EAEAEA" d="M1657.6,320.2c-0.1-10.9-4.9-20.4-13.1-27.4c-51.5-43.9-254.7-29.6-509.4-87.3
	C816,133.2,391.1-41.4,200.6,80.9c-37.9,24.3-63,57.9-80.1,99c-16.4,39.4-24,84.2-25.6,127.4c-7.9,218.8,130.5,491.5,355.4,612.3
	c39.8,21.3,82.3,37.4,125.4,47.2c179.9,40.9,378-27.9,539-119.6c168.1-95.7,332.9-237.5,453.5-381.5c23-27.4,58.9-72.1,76-103.8
	C1651,349.5,1657.7,334.3,1657.6,320.2 M1622.4,322.2c-0.3,10.1-4.2,20-8.6,29c-8.4,17.4-22.3,37-33.8,52.6
	c-12.5,16.8-26.9,34.9-40.1,50.9c-228,275-617.3,556.1-931.5,499c-161.5-29.3-295.4-148.3-379-289.5
	C107.9,458.8,96.1,214.1,203,112.4c173.8-165.3,647,59.8,979.7,122.7c53.8,10.2,108.9,17.6,163.2,23.1
	C1518,275.6,1623.8,270.5,1622.4,322.2"/>
<path fill="#EAEAEA" d="M1151.4,169.8C841.5,100.4,430.8-40,204.1,39.4c-74.6,26.1-126,73.5-155,151.3c-22.7,61-26.8,130-20.5,194
	c18.1,184,126.5,382.5,290.1,505.5c92.6,69.7,195.9,112,310,121.2c327.5,26.3,700-210,930.9-445.9c30.5-31.2,60.2-63.8,87.9-97.8
	c23.5-28.9,57.2-72.3,71.2-106.8c3.9-9.6,7-19.7,7.8-30C1733.9,228.1,1485.6,244.6,1151.4,169.8 M1685.1,353
	c-7.7,18.5-20.5,38.2-32.2,54.7c-23.6,33.3-54.8,70.6-82.5,101.5c-247.2,275.7-675.1,557.1-1019.1,471.6
	c-41.3-10.3-82.4-26.4-120.1-46.2c-289-152.1-430.8-529-347.8-747.4c30.3-79.6,85-124.9,164.2-146.4
	c237.8-64.4,664,104.3,969.1,162.2c244.7,46.6,434.8,40.5,469.8,97.6C1696.1,316.6,1692.3,335.6,1685.1,353"/>
</svg>
