<svg xmlns="http://www.w3.org/2000/svg" width="123" height="55" viewBox="0 0 123 55" fill="none">
  <path d="M0.39917 19.6946C0.39917 12.6564 0.39917 9.13731 1.81225 6.46847C2.9526 4.31473 4.7139 2.55343 6.86764 1.41308C9.53648 0 13.0556 0 20.0938 0H34.8304C41.8686 0 45.3877 0 48.0565 1.41308C50.2103 2.55343 51.9716 4.31473 53.1119 6.46847C54.525 9.13731 54.525 12.6564 54.525 19.6946V34.4312C54.525 41.4694 54.525 44.9885 53.1119 47.6574C51.9716 49.8111 50.2103 51.5724 48.0565 52.7128C45.3877 54.1258 41.8686 54.1258 34.8304 54.1258H20.0938C13.0556 54.1258 9.53648 54.1258 6.86764 52.7128C4.7139 51.5724 2.9526 49.8111 1.81225 47.6574C0.39917 44.9885 0.39917 41.4694 0.39917 34.4312V19.6946Z" fill="#F2F4F7"/>
  <path d="M15.2872 38.0851C14.6375 38.5737 14.949 39.6996 15.734 39.7002L44.6106 39.7225C45.4247 39.7231 45.7157 38.5294 45.0122 38.0751L36.3357 32.4716C35.9108 32.1972 35.8091 31.5658 36.1222 31.1453L47.3501 16.0632C47.9365 15.2754 47.0505 14.1958 46.2881 14.7692L15.2872 38.0851Z" fill="url(#paint0_linear_12_2369)"/>
  <path d="M39.632 16.2417C40.2816 15.7531 39.97 14.6271 39.185 14.6266L10.3079 14.6081C9.49389 14.6076 9.20295 15.8012 9.90637 16.2555L18.5835 21.8594C19.0084 22.1338 19.11 22.7652 18.797 23.1856L7.57005 38.2665C6.9836 39.0543 7.86968 40.1339 8.63203 39.5605L39.632 16.2417Z" fill="url(#paint1_linear_12_2369)"/>
  <path d="M92.6647 45.6759H65.553V39.5423L84.1601 14.0799H65.9653V7.9978H92.3555V13.8737L73.5937 39.5938H92.6647V45.6759Z" fill="white"/>
  <path d="M95.5061 32.8932C95.5061 24.9555 101.227 19.492 109.113 19.492C117 19.492 122.721 24.9555 122.721 32.8932C122.721 40.8309 117 46.2945 109.113 46.2945C101.227 46.2945 95.5061 40.8309 95.5061 32.8932ZM101.794 32.8932C101.794 37.5321 104.784 40.6762 109.113 40.6762C113.443 40.6762 116.433 37.5321 116.433 32.8932C116.433 28.2543 113.443 25.1102 109.113 25.1102C104.784 25.1102 101.794 28.2543 101.794 32.8932Z" fill="white"/>
  <defs>
    <linearGradient id="paint0_linear_12_2369" x1="27.4601" y1="14.6079" x2="27.4601" y2="39.7225" gradientUnits="userSpaceOnUse">
      <stop stop-color="#310ED9"/>
      <stop offset="1" stop-color="#6949FF"/>
    </linearGradient>
    <linearGradient id="paint1_linear_12_2369" x1="27.4601" y1="14.6079" x2="27.4601" y2="39.7225" gradientUnits="userSpaceOnUse">
      <stop stop-color="#310ED9"/>
      <stop offset="1" stop-color="#6949FF"/>
    </linearGradient>
  </defs>
</svg>